<svg width="257" height="51" viewBox="0 0 257 51" fill="none" xmlns="http://www.w3.org/2000/svg">
<g clip-path="url(#clip0_1_796)">
<path d="M85.1847 23.284C85.059 23.721 84.8075 24.158 84.4303 24.5949C84.0531 25.0319 83.613 25.2816 83.173 25.4689C83.5502 25.6561 83.8645 25.9683 84.0531 26.4052C84.2417 26.8422 84.3046 27.2791 84.1788 27.7161L82.9215 33.6463C82.67 34.77 82.1042 35.6439 81.287 36.3306C80.4697 37.0172 79.4638 37.3293 78.3951 37.3293H61.2324L66.2618 13.6084H83.4244C84.556 13.6084 85.3733 13.9205 85.9391 14.6072C86.5049 15.2938 86.6307 16.1678 86.3792 17.2914L85.1847 23.284ZM71.4169 26.967L69.7823 34.3954H74.7488L76.3205 26.967H71.4169ZM73.6172 16.6047L72.0455 24.0331H77.012L78.5837 16.6047H73.6172Z" fill="#258C44"/>
<path d="M88.4538 21.3489C88.6424 20.475 89.0825 19.7884 89.7741 19.2265C90.4656 18.6647 91.22 18.415 92.1001 18.415H104.862C105.742 18.415 106.371 18.6647 106.811 19.2265C107.251 19.7884 107.377 20.475 107.188 21.3489L104.925 32.1482H93.6089L93.0431 34.77H104.359L103.793 37.3918H88.831C87.6994 37.3918 86.8822 37.0797 86.3164 36.393C85.7506 35.7063 85.6248 34.8324 85.8763 33.7088L88.4538 21.3489ZM95.935 20.9744L94.1119 29.464H98.0725L99.8956 20.9744H95.935Z" fill="#258C44"/>
<path d="M112.909 37.3918C111.777 37.3918 110.96 37.0797 110.394 36.3931C109.829 35.7064 109.703 34.8325 109.954 33.7088L112.658 21.0369H109.074L109.64 18.4151H113.223L114.229 13.6709H121.585L120.579 18.4151H124.162L123.596 21.0369H120.013L117.058 34.77H120.642L120.076 37.3918H112.909Z" fill="#258C44"/>
<path d="M129.192 37.3918C128.06 37.3918 127.243 37.0797 126.677 36.3931C126.111 35.7064 125.985 34.8325 126.237 33.7088L128.94 21.0369H125.357L125.922 18.4151H129.506L130.512 13.6709H137.867L136.861 18.4151H140.445L139.879 21.0369H136.296L133.341 34.77H136.924L136.358 37.3918H129.192Z" fill="#258C44"/>
<path d="M158.048 37.3919H143.148C142.016 37.3919 141.199 37.0797 140.633 36.3931C140.068 35.7064 139.942 34.8325 140.193 33.7089L141.702 26.655C141.891 25.7811 142.331 25.0944 142.959 24.5326C143.588 23.9708 144.405 23.7211 145.286 23.7211H153.647L154.213 21.0993H146.543L147.109 18.4775H159.179C160.059 18.4775 160.688 18.7272 161.128 19.289C161.568 19.8509 161.694 20.5375 161.505 21.4114L158.048 37.3919ZM149.12 26.2805L147.297 34.7701H151.258L153.081 26.2805H149.12Z" fill="#258C44"/>
<path d="M178.039 37.3918H161.128L166.157 13.6709H174.141L169.678 34.4579H178.668L178.039 37.3918Z" fill="#258C44"/>
<path d="M183.886 21.3489C184.074 20.475 184.514 19.7884 185.206 19.2265C185.897 18.6647 186.652 18.415 187.532 18.415H200.294C201.174 18.415 201.803 18.6647 202.243 19.2265C202.683 19.7884 202.809 20.475 202.62 21.3489L200.043 33.6464C199.791 34.77 199.225 35.6439 198.408 36.3306C197.591 37.0172 196.585 37.3294 195.516 37.3294H184.2C183.068 37.3294 182.251 37.0172 181.685 36.3306C181.12 35.6439 180.994 34.77 181.245 33.6464L183.886 21.3489ZM191.367 20.9744L188.412 34.7076H192.373L195.328 20.9744H191.367Z" fill="#258C44"/>
<path d="M208.341 37.3918C207.209 37.3918 206.392 37.0797 205.826 36.3931C205.261 35.7064 205.135 34.8325 205.386 33.7088L208.09 21.0369H204.506L205.072 18.4151H208.655L209.661 13.6709H217.017L216.011 18.4151H219.594L219.028 21.0369H215.445L212.49 34.77H216.074L215.508 37.3918H208.341Z" fill="#258C44"/>
<path d="M224.686 37.3918C223.555 37.3918 222.738 37.0797 222.172 36.3931C221.606 35.7064 221.48 34.8325 221.732 33.7088L224.435 21.0369H220.852L221.417 18.4151H225.001L226.007 13.6709H233.362L232.356 18.4151H235.94L235.374 21.0369H231.79L228.836 34.77H232.419L231.853 37.3918H224.686Z" fill="#258C44"/>
<path d="M238.203 21.3489C238.391 20.475 238.832 19.7884 239.523 19.2265C240.215 18.6647 240.969 18.415 241.849 18.415H254.611C255.491 18.415 256.12 18.6647 256.56 19.2265C257 19.7884 257.126 20.475 256.937 21.3489L254.36 33.6464C254.108 34.77 253.542 35.6439 252.725 36.3306C251.908 37.0172 250.902 37.3294 249.833 37.3294H238.58C237.448 37.3294 236.631 37.0172 236.065 36.3306C235.5 35.6439 235.374 34.77 235.625 33.6464L238.203 21.3489ZM245.684 20.9744L242.729 34.7076H246.69L249.645 20.9744H245.684Z" fill="#258C44"/>
<path d="M25.7126 51.0624C39.9132 51.0624 51.4252 39.6317 51.4252 25.5312C51.4252 11.4307 39.9132 0 25.7126 0C11.5119 0 0 11.4307 0 25.5312C0 39.6317 11.5119 51.0624 25.7126 51.0624Z" fill="#258C44"/>
<path d="M25.7125 47.3796C37.8647 47.3796 47.716 37.5978 47.716 25.5313C47.716 13.4649 37.8647 3.68311 25.7125 3.68311C13.5604 3.68311 3.70911 13.4649 3.70911 25.5313C3.70911 37.5978 13.5604 47.3796 25.7125 47.3796Z" stroke="white" stroke-miterlimit="10"/>
<path d="M17.1627 29.7761C16.0939 25.8434 16.534 23.3465 17.2255 21.7859C17.5399 21.0368 18.42 19.2889 17.8542 17.4787C17.7285 16.9793 17.477 16.5423 17.0998 16.1053C16.2197 14.7944 15.9682 13.4836 16.8483 12.2975C18.2314 10.4248 21.1233 10.7369 23.135 12.2351C25.2725 14.1702 25.1468 16.6671 24.2038 19.4138C24.2666 20.038 25.7126 19.9132 28.5416 18.9768C31.4963 18.2277 33.8853 18.9144 34.954 22.9095C35.3312 24.2828 35.0797 25.8434 34.5768 27.5288C35.7084 30.5252 35.3941 32.8348 33.3195 34.1457C34.8283 37.3918 32.6279 39.0148 28.9188 39.8887C26.6556 40.5129 25.2725 40.0135 24.581 38.5778C23.5751 38.5154 22.7578 38.6402 21.6891 38.4529C21.6262 38.4529 21.5633 38.4529 21.5005 38.3905C18.4829 37.0172 16.8483 33.3966 17.1627 29.7761Z" fill="white" stroke="white" stroke-width="0.75" stroke-miterlimit="10"/>
<path d="M17.4141 12.36C18.5457 10.9867 20.5575 10.8619 22.6949 12.4849C24.8324 14.1079 24.3295 16.48 23.5122 19.0393C23.0093 20.7872 23.0721 22.2854 23.5751 23.6587C23.5751 22.3478 23.6379 21.0369 24.2666 20.2254C25.1467 20.5375 26.8441 20.163 28.9188 19.4763C31.7478 18.6024 33.4452 19.8508 34.3882 22.3478C34.8282 24.1581 34.7025 25.7187 33.8224 26.9671C30.9305 30.1507 28.353 30.2132 26.4041 28.5277C24.6438 26.9047 25.021 24.2205 26.7184 23.5963C28.4787 23.0344 29.8618 21.786 29.7989 20.8496C29.1074 21.7236 28.353 22.4102 26.2155 22.972C24.078 23.5338 23.8265 26.3429 25.3982 28.8398C23.9523 30.1507 23.8265 31.8362 24.5181 33.7089C23.7008 34.9573 23.7008 36.3307 24.2666 37.7664C23.0093 38.5155 21.3119 38.4531 19.2372 35.8313C18.2942 34.3331 17.917 32.7101 18.1685 31.1495C19.1115 31.5865 20.0545 31.7113 20.9347 31.7113C18.0428 30.6501 16.3454 28.3404 17.0998 23.7211C18.4828 20.912 19.6144 18.0406 17.2884 15.1691C16.6597 14.1703 16.7226 13.234 17.4141 12.36Z" fill="#258C44"/>
<path d="M34.0738 27.5913C31.3705 30.4004 28.6673 31.2119 25.964 29.0895C24.5809 30.4004 24.3294 31.7737 25.0838 33.2718C27.4099 35.0197 29.9875 35.0197 32.7536 33.7088C34.1995 32.5852 35.1425 31.0246 34.0738 27.5913Z" fill="#258C44"/>
<path d="M32.7536 34.2705C29.9246 35.5814 27.2214 35.7687 24.8324 34.0833C23.7008 36.3929 25.2096 39.4517 26.6556 39.4517C31.9364 39.0147 33.9481 37.142 32.7536 34.2705Z" fill="#258C44"/>
</g>
<defs>
<clipPath id="clip0_1_796">
<rect width="257" height="51" fill="white"/>
</clipPath>
</defs>
</svg>
