<svg width="20" height="20" viewBox="0 0 20 20" fill="none" xmlns="http://www.w3.org/2000/svg">
<path fill-rule="evenodd" clip-rule="evenodd" d="M1.66666 10.0048C1.66666 5.40523 5.407 1.66669 9.99999 1.66669C14.593 1.66669 18.3333 5.40523 18.3333 10.0048C18.3333 14.5948 14.593 18.3334 9.99999 18.3334C5.407 18.3334 1.66666 14.5948 1.66666 10.0048ZM13.0566 10.8482C13.1451 10.7598 13.2577 10.6231 13.2818 10.591C13.4105 10.4221 13.4749 10.2131 13.4749 10.0048C13.4749 9.77088 13.4025 9.55381 13.2658 9.37693C13.2545 9.36573 13.2326 9.34184 13.204 9.31072C13.1505 9.25248 13.0737 9.16888 13.0003 9.09553C12.3407 8.38803 10.6194 7.23028 9.71846 6.87653C9.58171 6.82105 9.23583 6.69965 9.05083 6.69161C8.87386 6.69161 8.70495 6.73181 8.54407 6.81221C8.34298 6.92477 8.1821 7.10164 8.09362 7.31068C8.03731 7.4554 7.94883 7.88955 7.94883 7.89759C7.86035 8.37195 7.81209 9.14377 7.81209 9.996C7.81209 10.8088 7.86035 11.5477 7.93274 12.0301C7.93474 12.0321 7.94165 12.0666 7.9524 12.1202C7.98508 12.2831 8.05316 12.6226 8.12579 12.7617C8.30276 13.0994 8.64864 13.3084 9.01865 13.3084H9.05083C9.29214 13.3004 9.7989 13.0914 9.7989 13.0833C10.6515 12.7296 12.3327 11.6281 13.0084 10.8965L13.0566 10.8482Z" fill="#9747FF"/>
</svg>
